<?xml version="1.0" encoding="utf-8"?>
<!-- Generator: Adobe Illustrator 21.1.0, SVG Export Plug-In . SVG Version: 6.00 Build 0)  -->
<svg version="1.1" id="Icons" xmlns="http://www.w3.org/2000/svg" xmlns:xlink="http://www.w3.org/1999/xlink" x="0px" y="0px"
	 viewBox="0 0 48 48" style="enable-background:new 0 0 48 48;" xml:space="preserve">
<style type="text/css">
	.st0{opacity:0.15;fill:#45413C;}
	.st1{fill:#FFE500;}
	.st2{fill:#EBCB00;}
	.st3{fill:none;stroke:#45413C;stroke-linecap:round;stroke-linejoin:round;stroke-miterlimit:10;}
	.st4{fill:#FFAA54;}
	.st5{fill:#FF8A14;}
	.st6{fill:#FFB0CA;stroke:#45413C;stroke-linecap:round;stroke-linejoin:round;stroke-miterlimit:10;}
	.st7{fill:#FF87AF;stroke:#45413C;stroke-linecap:round;stroke-linejoin:round;stroke-miterlimit:10;}
	.st8{fill:#FFCC99;}
	.st9{fill:#FFFFFF;}
	.st10{fill:#F0F0F0;}
	.st11{fill:#BF8256;}
	.st12{fill:#915E3A;}
	.st13{fill:#DEA47A;}
	.st14{fill:#F0D5A8;}
	.st15{fill:#DEBB7E;}
	.st16{fill:#F7E5C6;}
	.st17{fill:#FF8A14;stroke:#45413C;stroke-linecap:round;stroke-linejoin:round;stroke-miterlimit:10;}
	.st18{fill:#FFF5E3;}
	.st19{fill:#FFF48C;}
	.st20{fill:#FFFACF;}
	.st21{fill:#FFFCE5;}
	.st22{fill:#FF87AF;}
	.st23{fill:#FFB0CA;}
	.st24{fill:#FFE500;stroke:#45413C;stroke-linecap:round;stroke-linejoin:round;stroke-miterlimit:10;}
	.st25{fill:#9CEB60;stroke:#45413C;stroke-linecap:round;stroke-linejoin:round;stroke-miterlimit:10;}
	.st26{fill:#FFFACF;stroke:#45413C;stroke-linecap:round;stroke-linejoin:round;stroke-miterlimit:10;}
	.st27{fill:#00F5BC;stroke:#45413C;stroke-linecap:round;stroke-linejoin:round;stroke-miterlimit:10;}
	.st28{fill:#BF8256;stroke:#45413C;stroke-linecap:round;stroke-linejoin:round;stroke-miterlimit:10;}
	.st29{fill:#FFE3CF;stroke:#45413C;stroke-linecap:round;stroke-linejoin:round;stroke-miterlimit:10;}
	.st30{fill:#FF6242;}
	.st31{fill:#FF866E;}
	.st32{fill:none;stroke:#E04122;stroke-linecap:round;stroke-linejoin:round;stroke-miterlimit:10;}
	.st33{fill:#FFFEF2;stroke:#45413C;stroke-linecap:round;stroke-linejoin:round;stroke-miterlimit:10;}
	.st34{fill:#FF6242;stroke:#45413C;stroke-linecap:round;stroke-linejoin:round;stroke-miterlimit:10;}
	.st35{fill:#FFA694;}
	.st36{fill:#FFFFFF;stroke:#45413C;stroke-linecap:round;stroke-linejoin:round;stroke-miterlimit:10;}
	.st37{fill:#FFFEF2;}
	.st38{fill:#FF6196;}
	.st39{fill:#B89558;}
	.st40{fill:none;stroke:#915E3A;stroke-linecap:round;stroke-linejoin:round;stroke-miterlimit:10;}
	.st41{fill:#DEBB7E;stroke:#45413C;stroke-linecap:round;stroke-linejoin:round;stroke-miterlimit:10;}
	.st42{fill:#6DD627;stroke:#45413C;stroke-linecap:round;stroke-linejoin:round;stroke-miterlimit:10;}
	.st43{fill:#E5F8FF;}
	.st44{fill:#E8F4FA;}
	.st45{fill:#E8F4FA;stroke:#45413C;stroke-linecap:round;stroke-linejoin:round;stroke-miterlimit:10;}
	.st46{fill:#FFCCDD;}
	.st47{fill:#E5F8FF;stroke:#45413C;stroke-linecap:round;stroke-linejoin:round;stroke-miterlimit:10;}
	.st48{fill:#00B8F0;stroke:#45413C;stroke-linecap:round;stroke-linejoin:round;stroke-miterlimit:10;}
	.st49{fill:#00B8F0;}
	.st50{fill:#4ACFFF;}
	.st51{fill:#E04122;}
	.st52{fill:#E04122;stroke:#45413C;stroke-linecap:round;stroke-linejoin:round;stroke-miterlimit:10;}
	.st53{fill:#87898C;}
	.st54{fill:#BDBEC0;}
	.st55{fill:#656769;}
	.st56{fill:#525252;}
	.st57{fill:#FFF48C;stroke:#45413C;stroke-linecap:round;stroke-linejoin:round;stroke-miterlimit:10;}
	.st58{fill:#6DD627;}
	.st59{fill:#EB6D00;}
	.st60{fill:#46B000;}
	.st61{fill:#80DDFF;}
	.st62{fill:#DAEDF7;}
	.st63{fill:#BF8DF2;stroke:#45413C;stroke-linecap:round;stroke-linejoin:round;stroke-miterlimit:10;}
	.st64{fill:#9F5AE5;stroke:#45413C;stroke-linecap:round;stroke-linejoin:round;stroke-miterlimit:10;}
	.st65{fill:#C8FFA1;}
	.st66{fill:#E4FFD1;}
	.st67{fill:#9CEB60;}
	.st68{fill:#E5FEFF;}
	.st69{fill:#B8ECFF;}
	.st70{fill:#E0E0E0;stroke:#45413C;stroke-linecap:round;stroke-linejoin:round;stroke-miterlimit:10;}
	.st71{fill:#E0E0E0;}
	.st72{fill:none;stroke:#4F4B45;stroke-linejoin:round;stroke-miterlimit:10;}
	.st73{fill:none;stroke:#4F4B45;stroke-linecap:round;stroke-linejoin:round;stroke-miterlimit:10;}
	.st74{fill:#E0366F;stroke:#45413C;stroke-linecap:round;stroke-linejoin:round;stroke-miterlimit:10;}
	.st75{fill:none;stroke:#45413C;stroke-miterlimit:10;}
	.st76{fill:#FF866E;stroke:#45413C;stroke-linecap:round;stroke-linejoin:round;stroke-miterlimit:10;}
	.st77{fill:#45413C;stroke:#45413C;stroke-linecap:round;stroke-linejoin:round;stroke-miterlimit:10;}
	.st78{fill:#9F5AE5;}
	.st79{fill:#803EC2;}
	.st80{fill:#803EC2;stroke:#45413C;stroke-linecap:round;stroke-linejoin:round;stroke-miterlimit:10;}
	.st81{fill:#BF8DF2;}
	.st82{fill:#FFAA54;stroke:#45413C;stroke-linecap:round;stroke-linejoin:round;stroke-miterlimit:10;}
	.st83{fill:none;stroke:#45413C;stroke-linejoin:round;stroke-miterlimit:10;}
	.st84{fill:#FFCCDD;stroke:#45413C;stroke-linecap:round;stroke-linejoin:round;stroke-miterlimit:10;}
	.st85{fill:#FF6196;stroke:#45413C;stroke-linecap:round;stroke-linejoin:round;stroke-miterlimit:10;}
	.st86{fill:#FFE5EE;}
	.st87{fill:#F7E5C6;stroke:#45413C;stroke-linecap:round;stroke-linejoin:round;stroke-miterlimit:10;}
	.st88{fill:#E5FFF9;}
	.st89{fill:none;stroke:#45413C;stroke-width:1.0064;stroke-linecap:round;stroke-linejoin:round;stroke-miterlimit:10;}
	.st90{fill:#4AEFF7;}
	.st91{fill:#A6FBFF;}
	.st92{fill:#E5FEFF;stroke:#45413C;stroke-linecap:round;stroke-linejoin:round;stroke-miterlimit:10;}
	.st93{fill:#46B000;stroke:#45413C;stroke-linecap:round;stroke-linejoin:round;stroke-miterlimit:10;}
	.st94{fill:#FFFFFF;stroke:#45413C;stroke-linejoin:round;stroke-miterlimit:10;}
	.st95{fill:#FFFFFF;stroke:#45413C;stroke-miterlimit:10;}
	.st96{fill:#009FD9;}
	.st97{fill:#00DFEB;}
	.st98{fill:#C0DCEB;stroke:#45413C;stroke-linecap:round;stroke-linejoin:round;stroke-miterlimit:10;}
	.st99{fill:#00DFEB;stroke:#45413C;stroke-linecap:round;stroke-linejoin:round;stroke-miterlimit:10;}
	.st100{fill:#FFE5EE;stroke:#45413C;stroke-linecap:round;stroke-linejoin:round;stroke-miterlimit:10;}
	.st101{fill:#8CA4B8;}
	.st102{fill:#ADC4D9;}
	.st103{fill:#656769;stroke:#45413C;stroke-linecap:round;stroke-linejoin:round;stroke-miterlimit:10;}
	.st104{fill:#F0F0F0;stroke:#45413C;stroke-linecap:round;stroke-linejoin:round;stroke-miterlimit:10;}
	.st105{fill:#C0DCEB;}
	.st106{fill:#45413C;}
	.st107{fill:#FFCABF;}
	.st108{fill:#87898C;stroke:#45413C;stroke-linecap:round;stroke-linejoin:round;stroke-miterlimit:10;}
	.st109{fill:#EBCB00;stroke:#45413C;stroke-linecap:round;stroke-linejoin:round;stroke-miterlimit:10;}
</style>
<g id="XMLID_12943_">
	<ellipse id="XMLID_12952_" class="st0" cx="21.4" cy="45.4" rx="12.6" ry="1.6"/>
	<path class="st1" d="M37.8,23.5c-0.4-1.4-0.6-2.8-0.5-4.2c0.1-1.5-0.5-3-1.7-4.2l-0.9-0.9c-1.1-1.1-2.7-1.7-4.2-1.7
		c-1.4,0.1-2.8-0.2-4.2-0.5c-5.6-1.5-11.7,0.8-16.2,5.2c-4.4,4.4-6.7,10.6-5.2,16.2c0.4,1.4,0.6,2.8,0.5,4.2c-0.1,1.5,0.5,3,1.7,4.2
		l0.9,0.9c1.1,1.1,2.7,1.7,4.2,1.7c1.4-0.1,2.8,0.2,4.2,0.5c5.6,1.5,11.7-0.8,16.2-5.2C37,35.3,39.3,29.1,37.8,23.5z"/>
	<path id="XMLID_12951_" class="st19" d="M10.1,22.2c4.4-4.4,10.6-6.7,16.2-5.2c1.4,0.4,2.8,0.6,4.2,0.5c1.5-0.1,3,0.5,4.2,1.7
		l0.9,0.9c1.1,1.1,1.7,2.7,1.7,4.2c-0.1,1.4,0.2,2.8,0.5,4.2c0.1,0.4,0.2,0.7,0.2,1.1c0.3-2,0.3-4.1-0.2-6.1
		c-0.4-1.4-0.6-2.8-0.5-4.2c0.1-1.5-0.5-3-1.7-4.2l-0.9-0.9c-1.1-1.1-2.7-1.7-4.2-1.7c-1.4,0.1-2.8-0.2-4.2-0.5
		c-5.6-1.5-11.7,0.8-16.2,5.2C6,21.4,3.7,27,4.7,32.3C5.3,28.6,7.3,25.1,10.1,22.2z"/>
	<path class="st3" d="M37.8,23.5c-0.4-1.4-0.6-2.8-0.5-4.2c0.1-1.5-0.5-3-1.7-4.2l-0.9-0.9c-1.1-1.1-2.7-1.7-4.2-1.7
		c-1.4,0.1-2.8-0.2-4.2-0.5c-5.6-1.5-11.7,0.8-16.2,5.2c-4.4,4.4-6.7,10.6-5.2,16.2c0.4,1.4,0.6,2.8,0.5,4.2c-0.1,1.5,0.5,3,1.7,4.2
		l0.9,0.9c1.1,1.1,2.7,1.7,4.2,1.7c1.4-0.1,2.8,0.2,4.2,0.5c5.6,1.5,11.7-0.8,16.2-5.2C37,35.3,39.3,29.1,37.8,23.5z"/>
	<path id="XMLID_12950_" class="st15" d="M33.3,15c0,0,2.8-3.2,6.6-4.3c2.5-0.7,3,0.8,3.1,2c0,0.6-0.4,1.1-1,1.2
		c-1.5,0.2-4.5,0.7-7.2,2.6C33.4,16.7,33.3,15,33.3,15z"/>
	<path id="XMLID_12949_" class="st14" d="M33.9,16.3c1-1,3.2-2.9,6-3.6c1.7-0.5,2.5,0.1,2.9,0.9c0.2-0.2,0.3-0.5,0.3-0.8
		c-0.1-1.1-0.7-2.6-3.1-2c-3.8,1-6.6,4.3-6.6,4.3S33.4,15.8,33.9,16.3z"/>
	<path id="XMLID_12948_" class="st3" d="M33.3,15c0,0,2.8-3.2,6.6-4.3c2.5-0.7,3,0.8,3.1,2c0,0.6-0.4,1.1-1,1.2
		c-1.5,0.2-4.5,0.7-7.2,2.6C33.4,16.7,33.3,15,33.3,15z"/>
	<path id="XMLID_12947_" class="st58" d="M33.3,15c0,0,2.2-5.3-2.7-9.8C26.2,1,21.7,2.3,20.1,3c-0.4,0.2-0.6,0.6-0.6,1
		c0,1.6,0.4,5.4,3.8,7.9C27.2,14.9,31.2,11.5,33.3,15z"/>
	<path id="XMLID_12946_" class="st67" d="M20.1,6c1.6-0.7,6.1-2.1,10.5,2.1c2,1.8,2.8,3.8,3.1,5.5c0.3-1.9,0.3-5.3-3.1-8.5
		C26.2,1,21.7,2.3,20.1,3c-0.4,0.2-0.6,0.6-0.6,1c0,0.5,0.1,1.3,0.3,2.3C19.8,6.2,19.9,6.1,20.1,6z"/>
	<path id="XMLID_12945_" class="st3" d="M33.3,15c0,0,2.2-5.3-2.7-9.8C26.2,1,21.7,2.3,20.1,3c-0.4,0.2-0.6,0.6-0.6,1
		c0,1.6,0.4,5.4,3.8,7.9C27.2,14.9,31.2,11.5,33.3,15z"/>
	<path id="XMLID_12944_" class="st3" d="M33.3,15c0,0,0-5.9-5.6-8.4"/>
</g>
</svg>
